<svg width="46" height="43" viewBox="0 0 46 43" fill="none" xmlns="http://www.w3.org/2000/svg">
<path d="M24.9703 3.58301C27.1266 3.58838 28.221 3.59913 29.1659 3.62422L29.5378 3.63676C29.9671 3.65109 30.3907 3.66901 30.9024 3.69051C32.9417 3.78009 34.3332 4.08109 35.5542 4.52363C36.8192 4.97872 37.8848 5.59505 38.9505 6.58942C39.9255 7.48478 40.6797 8.56827 41.1604 9.76426C41.6338 10.9055 41.9558 12.2063 42.0517 14.1144C42.0747 14.591 42.0938 14.987 42.1092 15.3901L42.1207 15.7377C42.1494 16.6192 42.1609 17.6422 42.1648 19.6578L42.1667 20.9944V23.3415C42.1713 24.6484 42.1566 25.9552 42.1226 27.2617L42.1111 27.6093C42.0958 28.0124 42.0766 28.4083 42.0536 28.8849C41.9577 30.7931 41.6319 32.092 41.1604 33.2351C40.6797 34.4311 39.9255 35.5146 38.9505 36.4099C37.9927 37.3213 36.8336 38.0263 35.5542 38.4757C34.3332 38.9183 32.9417 39.2193 30.9024 39.3088L29.5378 39.3626L29.1659 39.3733C28.221 39.3984 27.1266 39.411 24.9703 39.4146L23.5405 39.4163H21.0316C19.6329 39.421 18.2343 39.4072 16.836 39.3751L16.4642 39.3644C16.0092 39.3483 15.5543 39.3298 15.0995 39.3088C13.0602 39.2193 11.6687 38.9183 10.4458 38.4757C9.16709 38.0261 8.00868 37.3211 7.05142 36.4099C6.07573 35.5147 5.32088 34.4312 4.83959 33.2351C4.36617 32.0938 4.04417 30.7931 3.94833 28.8849L3.89084 27.6093L3.88125 27.2617C3.84592 25.9552 3.82995 24.6484 3.83334 23.3415V19.6578C3.82803 18.351 3.84209 17.0442 3.8755 15.7377L3.88892 15.3901C3.90425 14.987 3.92342 14.591 3.94642 14.1144C4.04225 12.2063 4.36425 10.9073 4.83767 9.76426C5.32008 8.56778 6.07626 7.48425 7.05333 6.58942C8.01005 5.67845 9.16778 4.97347 10.4458 4.52363C11.6687 4.08109 13.0583 3.78009 15.0995 3.69051C15.6093 3.66901 16.0348 3.65109 16.4642 3.63676L16.836 3.62601C18.2336 3.59417 19.6316 3.58044 21.0297 3.5848L24.9703 3.58301ZM23 12.5413C20.4583 12.5413 18.0208 13.4852 16.2236 15.1652C14.4263 16.8452 13.4167 19.1238 13.4167 21.4997C13.4167 23.8756 14.4263 26.1542 16.2236 27.8342C18.0208 29.5142 20.4583 30.458 23 30.458C25.5417 30.458 27.9792 29.5142 29.7764 27.8342C31.5737 26.1542 32.5833 23.8756 32.5833 21.4997C32.5833 19.1238 31.5737 16.8452 29.7764 15.1652C27.9792 13.4852 25.5417 12.5413 23 12.5413ZM23 16.1247C23.7551 16.1246 24.5028 16.2635 25.2005 16.5335C25.8982 16.8035 26.5321 17.1993 27.0661 17.6983C27.6002 18.1974 28.0238 18.7898 28.3129 19.4419C28.602 20.094 28.7508 20.7929 28.751 21.4988C28.7511 22.2046 28.6025 22.9036 28.3136 23.5558C28.0248 24.2079 27.6013 24.8005 27.0675 25.2997C26.5337 25.7989 25.8998 26.195 25.2023 26.4652C24.5047 26.7354 23.757 26.8746 23.0019 26.8747C21.4769 26.8747 20.0144 26.3084 18.9361 25.3004C17.8577 24.2924 17.2519 22.9252 17.2519 21.4997C17.2519 20.0741 17.8577 18.707 18.9361 17.699C20.0144 16.691 21.4769 16.1247 23.0019 16.1247M33.0644 9.85384C32.429 9.85384 31.8196 10.0898 31.3703 10.5098C30.921 10.9298 30.6686 11.4995 30.6686 12.0934C30.6686 12.6874 30.921 13.257 31.3703 13.677C31.8196 14.0971 32.429 14.333 33.0644 14.333C33.6998 14.333 34.3092 14.0971 34.7585 13.677C35.2078 13.257 35.4602 12.6874 35.4602 12.0934C35.4602 11.4995 35.2078 10.9298 34.7585 10.5098C34.3092 10.0898 33.6998 9.85384 33.0644 9.85384Z" fill="black"/>
</svg>
